<mxfile host="app.diagrams.net" modified="2021-05-07T14:46:47.909Z" agent="5.0 (X11; CrOS aarch64 13816.64.0) AppleWebKit/537.36 (KHTML, like Gecko) Chrome/90.0.4430.100 Safari/537.36" etag="YLZK3uDZEcNWC5Ecsm4V" version="14.6.11" type="github">
  <diagram id="lTI_GXjILArvqHc6UkpN" name="Page-1">
    <mxGraphModel dx="582" dy="415" grid="1" gridSize="10" guides="1" tooltips="1" connect="1" arrows="1" fold="1" page="1" pageScale="1" pageWidth="850" pageHeight="1100" math="0" shadow="0">
      <root>
        <mxCell id="0" />
        <mxCell id="1" parent="0" />
        <mxCell id="p_6VwAlpQ4yE-w-dTOtK-11" style="edgeStyle=orthogonalEdgeStyle;rounded=0;orthogonalLoop=1;jettySize=auto;html=1;exitX=0.5;exitY=1;exitDx=0;exitDy=0;exitPerimeter=0;entryX=0.5;entryY=0;entryDx=0;entryDy=0;" edge="1" parent="1" source="p_6VwAlpQ4yE-w-dTOtK-1" target="p_6VwAlpQ4yE-w-dTOtK-2">
          <mxGeometry relative="1" as="geometry" />
        </mxCell>
        <mxCell id="p_6VwAlpQ4yE-w-dTOtK-1" value="Start" style="strokeWidth=2;html=1;shape=mxgraph.flowchart.terminator;whiteSpace=wrap;" vertex="1" parent="1">
          <mxGeometry x="250" y="190" width="100" height="60" as="geometry" />
        </mxCell>
        <mxCell id="p_6VwAlpQ4yE-w-dTOtK-12" style="edgeStyle=orthogonalEdgeStyle;rounded=0;orthogonalLoop=1;jettySize=auto;html=1;exitX=0.5;exitY=1;exitDx=0;exitDy=0;entryX=0.5;entryY=0;entryDx=0;entryDy=0;entryPerimeter=0;" edge="1" parent="1" source="p_6VwAlpQ4yE-w-dTOtK-2" target="p_6VwAlpQ4yE-w-dTOtK-3">
          <mxGeometry relative="1" as="geometry" />
        </mxCell>
        <mxCell id="p_6VwAlpQ4yE-w-dTOtK-2" value="Get number" style="shape=parallelogram;html=1;strokeWidth=2;perimeter=parallelogramPerimeter;whiteSpace=wrap;rounded=1;arcSize=12;size=0.23;" vertex="1" parent="1">
          <mxGeometry x="250" y="290" width="100" height="60" as="geometry" />
        </mxCell>
        <mxCell id="p_6VwAlpQ4yE-w-dTOtK-17" style="edgeStyle=orthogonalEdgeStyle;rounded=0;orthogonalLoop=1;jettySize=auto;html=1;exitX=0.5;exitY=1;exitDx=0;exitDy=0;exitPerimeter=0;entryX=-0.009;entryY=0.764;entryDx=0;entryDy=0;entryPerimeter=0;" edge="1" parent="1" source="p_6VwAlpQ4yE-w-dTOtK-3" target="p_6VwAlpQ4yE-w-dTOtK-8">
          <mxGeometry relative="1" as="geometry" />
        </mxCell>
        <mxCell id="p_6VwAlpQ4yE-w-dTOtK-18" style="edgeStyle=orthogonalEdgeStyle;rounded=0;orthogonalLoop=1;jettySize=auto;html=1;exitX=0.5;exitY=1;exitDx=0;exitDy=0;exitPerimeter=0;entryX=0;entryY=0.833;entryDx=0;entryDy=0;entryPerimeter=0;" edge="1" parent="1" source="p_6VwAlpQ4yE-w-dTOtK-3" target="p_6VwAlpQ4yE-w-dTOtK-9">
          <mxGeometry relative="1" as="geometry" />
        </mxCell>
        <mxCell id="p_6VwAlpQ4yE-w-dTOtK-19" style="edgeStyle=orthogonalEdgeStyle;rounded=0;orthogonalLoop=1;jettySize=auto;html=1;exitX=0.5;exitY=1;exitDx=0;exitDy=0;exitPerimeter=0;entryX=-0.005;entryY=0.812;entryDx=0;entryDy=0;entryPerimeter=0;" edge="1" parent="1" source="p_6VwAlpQ4yE-w-dTOtK-3" target="p_6VwAlpQ4yE-w-dTOtK-7">
          <mxGeometry relative="1" as="geometry" />
        </mxCell>
        <mxCell id="p_6VwAlpQ4yE-w-dTOtK-20" style="edgeStyle=orthogonalEdgeStyle;rounded=0;orthogonalLoop=1;jettySize=auto;html=1;exitX=0.5;exitY=1;exitDx=0;exitDy=0;exitPerimeter=0;entryX=-0.003;entryY=0.86;entryDx=0;entryDy=0;entryPerimeter=0;" edge="1" parent="1" source="p_6VwAlpQ4yE-w-dTOtK-3" target="p_6VwAlpQ4yE-w-dTOtK-6">
          <mxGeometry relative="1" as="geometry" />
        </mxCell>
        <mxCell id="p_6VwAlpQ4yE-w-dTOtK-21" style="edgeStyle=orthogonalEdgeStyle;rounded=0;orthogonalLoop=1;jettySize=auto;html=1;exitX=0.5;exitY=1;exitDx=0;exitDy=0;exitPerimeter=0;entryX=0.039;entryY=0.834;entryDx=0;entryDy=0;entryPerimeter=0;" edge="1" parent="1" source="p_6VwAlpQ4yE-w-dTOtK-3" target="p_6VwAlpQ4yE-w-dTOtK-5">
          <mxGeometry relative="1" as="geometry" />
        </mxCell>
        <mxCell id="p_6VwAlpQ4yE-w-dTOtK-3" value="number of month" style="strokeWidth=2;html=1;shape=mxgraph.flowchart.decision;whiteSpace=wrap;" vertex="1" parent="1">
          <mxGeometry x="250" y="390" width="100" height="100" as="geometry" />
        </mxCell>
        <mxCell id="p_6VwAlpQ4yE-w-dTOtK-29" style="edgeStyle=orthogonalEdgeStyle;rounded=0;orthogonalLoop=1;jettySize=auto;html=1;exitX=1;exitY=1;exitDx=0;exitDy=0;entryX=0.5;entryY=0;entryDx=0;entryDy=0;entryPerimeter=0;" edge="1" parent="1" source="p_6VwAlpQ4yE-w-dTOtK-5" target="p_6VwAlpQ4yE-w-dTOtK-10">
          <mxGeometry relative="1" as="geometry" />
        </mxCell>
        <mxCell id="p_6VwAlpQ4yE-w-dTOtK-5" value="print (&quot;January&quot;)" style="shape=parallelogram;html=1;strokeWidth=2;perimeter=parallelogramPerimeter;whiteSpace=wrap;rounded=1;arcSize=12;size=0.23;" vertex="1" parent="1">
          <mxGeometry x="410" y="480" width="100" height="60" as="geometry" />
        </mxCell>
        <mxCell id="p_6VwAlpQ4yE-w-dTOtK-28" style="edgeStyle=orthogonalEdgeStyle;rounded=0;orthogonalLoop=1;jettySize=auto;html=1;exitX=1;exitY=1;exitDx=0;exitDy=0;" edge="1" parent="1" source="p_6VwAlpQ4yE-w-dTOtK-6" target="p_6VwAlpQ4yE-w-dTOtK-10">
          <mxGeometry relative="1" as="geometry" />
        </mxCell>
        <mxCell id="p_6VwAlpQ4yE-w-dTOtK-6" value="print (&quot;February&quot;)" style="shape=parallelogram;html=1;strokeWidth=2;perimeter=parallelogramPerimeter;whiteSpace=wrap;rounded=1;arcSize=12;size=0.23;" vertex="1" parent="1">
          <mxGeometry x="410" y="570" width="100" height="60" as="geometry" />
        </mxCell>
        <mxCell id="p_6VwAlpQ4yE-w-dTOtK-27" style="edgeStyle=orthogonalEdgeStyle;rounded=0;orthogonalLoop=1;jettySize=auto;html=1;exitX=1;exitY=1;exitDx=0;exitDy=0;" edge="1" parent="1" source="p_6VwAlpQ4yE-w-dTOtK-7" target="p_6VwAlpQ4yE-w-dTOtK-10">
          <mxGeometry relative="1" as="geometry" />
        </mxCell>
        <mxCell id="p_6VwAlpQ4yE-w-dTOtK-7" value="..." style="shape=parallelogram;html=1;strokeWidth=2;perimeter=parallelogramPerimeter;whiteSpace=wrap;rounded=1;arcSize=12;size=0.23;" vertex="1" parent="1">
          <mxGeometry x="410" y="660" width="100" height="60" as="geometry" />
        </mxCell>
        <mxCell id="p_6VwAlpQ4yE-w-dTOtK-23" style="edgeStyle=orthogonalEdgeStyle;rounded=0;orthogonalLoop=1;jettySize=auto;html=1;exitX=1;exitY=1;exitDx=0;exitDy=0;" edge="1" parent="1" source="p_6VwAlpQ4yE-w-dTOtK-8">
          <mxGeometry relative="1" as="geometry">
            <mxPoint x="570" y="940" as="targetPoint" />
          </mxGeometry>
        </mxCell>
        <mxCell id="p_6VwAlpQ4yE-w-dTOtK-8" value="print (&quot;December&quot;)" style="shape=parallelogram;html=1;strokeWidth=2;perimeter=parallelogramPerimeter;whiteSpace=wrap;rounded=1;arcSize=12;size=0.23;" vertex="1" parent="1">
          <mxGeometry x="410" y="750" width="100" height="60" as="geometry" />
        </mxCell>
        <mxCell id="p_6VwAlpQ4yE-w-dTOtK-22" style="edgeStyle=orthogonalEdgeStyle;rounded=0;orthogonalLoop=1;jettySize=auto;html=1;exitX=1;exitY=1;exitDx=0;exitDy=0;entryX=0.5;entryY=0;entryDx=0;entryDy=0;entryPerimeter=0;" edge="1" parent="1" source="p_6VwAlpQ4yE-w-dTOtK-9" target="p_6VwAlpQ4yE-w-dTOtK-10">
          <mxGeometry relative="1" as="geometry" />
        </mxCell>
        <mxCell id="p_6VwAlpQ4yE-w-dTOtK-9" value="print (&quot;Invalid number.&quot;)" style="shape=parallelogram;html=1;strokeWidth=2;perimeter=parallelogramPerimeter;whiteSpace=wrap;rounded=1;arcSize=12;size=0.23;" vertex="1" parent="1">
          <mxGeometry x="410" y="840" width="100" height="60" as="geometry" />
        </mxCell>
        <mxCell id="p_6VwAlpQ4yE-w-dTOtK-10" value="Stop" style="strokeWidth=2;html=1;shape=mxgraph.flowchart.terminator;whiteSpace=wrap;" vertex="1" parent="1">
          <mxGeometry x="520" y="940" width="100" height="60" as="geometry" />
        </mxCell>
        <mxCell id="p_6VwAlpQ4yE-w-dTOtK-30" value="1" style="text;html=1;align=center;verticalAlign=middle;resizable=0;points=[];autosize=1;strokeColor=none;" vertex="1" parent="1">
          <mxGeometry x="300" y="510" width="20" height="20" as="geometry" />
        </mxCell>
        <mxCell id="p_6VwAlpQ4yE-w-dTOtK-31" value="2" style="text;html=1;align=center;verticalAlign=middle;resizable=0;points=[];autosize=1;strokeColor=none;" vertex="1" parent="1">
          <mxGeometry x="300" y="600" width="20" height="20" as="geometry" />
        </mxCell>
        <mxCell id="p_6VwAlpQ4yE-w-dTOtK-32" value="3-11" style="text;html=1;align=center;verticalAlign=middle;resizable=0;points=[];autosize=1;strokeColor=none;rotation=0;" vertex="1" parent="1">
          <mxGeometry x="300" y="690" width="40" height="20" as="geometry" />
        </mxCell>
        <mxCell id="p_6VwAlpQ4yE-w-dTOtK-33" value="12" style="text;html=1;align=center;verticalAlign=middle;resizable=0;points=[];autosize=1;strokeColor=none;" vertex="1" parent="1">
          <mxGeometry x="295" y="770" width="30" height="20" as="geometry" />
        </mxCell>
        <mxCell id="p_6VwAlpQ4yE-w-dTOtK-34" value="Default" style="text;html=1;align=center;verticalAlign=middle;resizable=0;points=[];autosize=1;strokeColor=none;" vertex="1" parent="1">
          <mxGeometry x="300" y="870" width="50" height="20" as="geometry" />
        </mxCell>
      </root>
    </mxGraphModel>
  </diagram>
</mxfile>
